<?xml version="1.0" encoding="utf-8"?>
<!-- Generator: Adobe Illustrator 19.0.0, SVG Export Plug-In . SVG Version: 6.00 Build 0)  -->
<svg version="1.1" id="Calque_1" xmlns="http://www.w3.org/2000/svg" xmlns:xlink="http://www.w3.org/1999/xlink" x="0px" y="0px"
	 viewBox="0 0 841.9 595.3" style="enable-background:new 0 0 841.9 595.3;" xml:space="preserve">
<style type="text/css">
	.st0{fill:#FFFFFF;}
	.st1{filter:url(#Adobe_OpacityMaskFilter);}
	.st2{fill:#1D1D1B;stroke:#FFFFFF;stroke-miterlimit:10;}
	.st3{fill:#FFFFFF;stroke:#FFFFFF;stroke-miterlimit:10;}
	.st4{mask:url(#XMLID_12_);}
	.st5{fill:none;}
	.st6{fill:none;stroke:#FFFFFF;stroke-miterlimit:10;}
	.st7{font-family:'BluuNext-Bold';}
	.st8{font-size:25.8931px;}
</style>
<path id="XMLID_155_" d="M508.6,397.2c0,47.5-38.2,86.1-85.1,86.1s-85.1-38.6-85.1-86.1s38.2-86.1,85.1-86.1
	S508.6,349.7,508.6,397.2z"/>
<path id="XMLID_411_" class="st0" d="M287.8,425.3c0,75.8,60.9,137.4,135.7,137.4c74.8,0,135.7-61.6,135.7-137.4
	s-60.9-137.4-135.7-137.4C348.7,287.9,287.8,349.5,287.8,425.3z M508.6,385.7c0,47.5-38.2,86.1-85.1,86.1s-85.1-38.6-85.1-86.1
	s38.2-86.1,85.1-86.1S508.6,338.2,508.6,385.7z"/>
<defs>
	<filter id="Adobe_OpacityMaskFilter" filterUnits="userSpaceOnUse" x="287.8" y="287.9" width="271.4" height="274.8">
		<feColorMatrix  type="matrix" values="1 0 0 0 0  0 1 0 0 0  0 0 1 0 0  0 0 0 1 0"/>
	</filter>
</defs>
<mask maskUnits="userSpaceOnUse" x="287.8" y="287.9" width="271.4" height="274.8" id="XMLID_12_">
	<g id="XMLID_236_" class="st1">
		<g id="XMLID_323_">
			<g id="XMLID_405_">
				<line id="XMLID_150_" class="st2" x1="649.4" y1="300.4" x2="196.9" y2="300.4"/>
				<rect id="XMLID_149_" x="196.9" y="298.1" class="st3" width="452.6" height="4.5"/>
			</g>
			<g id="XMLID_402_">
				<line id="XMLID_148_" class="st2" x1="649.4" y1="306.9" x2="196.9" y2="306.9"/>
				<rect id="XMLID_147_" x="196.9" y="304.8" class="st3" width="452.6" height="4.3"/>
			</g>
			<g id="XMLID_399_">
				<line id="XMLID_146_" class="st2" x1="649.4" y1="313.5" x2="196.9" y2="313.5"/>
				<rect id="XMLID_145_" x="196.9" y="311.4" class="st3" width="452.6" height="4.2"/>
			</g>
			<g id="XMLID_396_">
				<line id="XMLID_144_" class="st2" x1="649.4" y1="320.1" x2="196.9" y2="320.1"/>
				<rect id="XMLID_143_" x="196.9" y="318.1" class="st3" width="452.6" height="4"/>
			</g>
			<g id="XMLID_393_">
				<line id="XMLID_142_" class="st2" x1="649.4" y1="326.7" x2="196.9" y2="326.7"/>
				<rect id="XMLID_141_" x="196.9" y="324.7" class="st3" width="452.6" height="3.9"/>
			</g>
			<g id="XMLID_390_">
				<line id="XMLID_140_" class="st2" x1="649.4" y1="333.2" x2="196.9" y2="333.2"/>
				<rect id="XMLID_139_" x="196.9" y="331.4" class="st3" width="452.6" height="3.7"/>
			</g>
			<g id="XMLID_387_">
				<line id="XMLID_138_" class="st2" x1="649.4" y1="339.8" x2="196.9" y2="339.8"/>
				<rect id="XMLID_137_" x="196.9" y="338" class="st3" width="452.6" height="3.5"/>
			</g>
			<g id="XMLID_384_">
				<line id="XMLID_136_" class="st2" x1="649.4" y1="346.4" x2="196.9" y2="346.4"/>
				<rect id="XMLID_135_" x="196.9" y="344.7" class="st3" width="452.6" height="3.4"/>
			</g>
			<g id="XMLID_381_">
				<line id="XMLID_134_" class="st2" x1="649.4" y1="352.9" x2="196.9" y2="352.9"/>
				<rect id="XMLID_133_" x="196.9" y="351.3" class="st3" width="452.6" height="3.2"/>
			</g>
			<g id="XMLID_378_">
				<line id="XMLID_132_" class="st2" x1="649.4" y1="359.5" x2="196.9" y2="359.5"/>
				<rect id="XMLID_131_" x="196.9" y="358" class="st3" width="452.6" height="3.1"/>
			</g>
			<g id="XMLID_375_">
				<line id="XMLID_130_" class="st2" x1="649.4" y1="366.1" x2="196.9" y2="366.1"/>
				<rect id="XMLID_129_" x="196.9" y="364.6" class="st3" width="452.6" height="2.9"/>
			</g>
			<g id="XMLID_372_">
				<line id="XMLID_128_" class="st2" x1="649.4" y1="372.7" x2="196.9" y2="372.7"/>
				<rect id="XMLID_127_" x="196.9" y="371.3" class="st3" width="452.6" height="2.8"/>
			</g>
			<g id="XMLID_369_">
				<line id="XMLID_126_" class="st2" x1="649.4" y1="379.2" x2="196.9" y2="379.2"/>
				<rect id="XMLID_125_" x="196.9" y="377.9" class="st3" width="452.6" height="2.6"/>
			</g>
			<g id="XMLID_366_">
				<line id="XMLID_124_" class="st2" x1="649.4" y1="385.8" x2="196.9" y2="385.8"/>
				<rect id="XMLID_123_" x="196.9" y="384.6" class="st3" width="452.6" height="2.4"/>
			</g>
			<g id="XMLID_363_">
				<line id="XMLID_122_" class="st2" x1="649.4" y1="392.4" x2="196.9" y2="392.4"/>
				<rect id="XMLID_121_" x="196.9" y="391.2" class="st3" width="452.6" height="2.3"/>
			</g>
			<g id="XMLID_360_">
				<line id="XMLID_120_" class="st2" x1="649.4" y1="398.9" x2="196.9" y2="398.9"/>
				<rect id="XMLID_119_" x="196.9" y="397.9" class="st3" width="452.6" height="2.1"/>
			</g>
			<g id="XMLID_357_">
				<line id="XMLID_118_" class="st2" x1="649.4" y1="405.5" x2="196.9" y2="405.5"/>
				<rect id="XMLID_117_" x="196.9" y="404.5" class="st3" width="452.6" height="2"/>
			</g>
			<g id="XMLID_354_">
				<line id="XMLID_116_" class="st2" x1="649.4" y1="412.1" x2="196.9" y2="412.1"/>
				<rect id="XMLID_115_" x="196.9" y="411.2" class="st3" width="452.6" height="1.8"/>
			</g>
			<g id="XMLID_351_">
				<line id="XMLID_114_" class="st2" x1="649.4" y1="418.7" x2="196.9" y2="418.7"/>
				<rect id="XMLID_113_" x="196.9" y="417.8" class="st3" width="452.6" height="1.7"/>
			</g>
			<g id="XMLID_348_">
				<line id="XMLID_112_" class="st2" x1="649.4" y1="425.2" x2="196.9" y2="425.2"/>
				<rect id="XMLID_111_" x="196.9" y="424.5" class="st3" width="452.6" height="1.5"/>
			</g>
			<g id="XMLID_345_">
				<line id="XMLID_110_" class="st2" x1="649.4" y1="431.8" x2="196.9" y2="431.8"/>
				<rect id="XMLID_109_" x="196.9" y="431.1" class="st3" width="452.6" height="1.3"/>
			</g>
			<g id="XMLID_342_">
				<line id="XMLID_108_" class="st2" x1="649.4" y1="438.4" x2="196.9" y2="438.4"/>
				<rect id="XMLID_107_" x="196.9" y="437.8" class="st3" width="452.6" height="1.2"/>
			</g>
			<g id="XMLID_339_">
				<line id="XMLID_106_" class="st2" x1="649.4" y1="444.9" x2="196.9" y2="444.9"/>
				<rect id="XMLID_105_" x="196.9" y="444.4" class="st3" width="452.6" height="1"/>
			</g>
			<g id="XMLID_336_">
				<line id="XMLID_104_" class="st2" x1="649.4" y1="451.5" x2="196.9" y2="451.5"/>
				<rect id="XMLID_103_" x="196.9" y="451.1" class="st3" width="452.6" height="0.9"/>
			</g>
			<g id="XMLID_333_">
				<line id="XMLID_102_" class="st2" x1="649.4" y1="458.1" x2="196.9" y2="458.1"/>
				<rect id="XMLID_101_" x="196.9" y="457.7" class="st3" width="452.6" height="0.7"/>
			</g>
			<g id="XMLID_330_">
				<line id="XMLID_100_" class="st2" x1="649.4" y1="464.7" x2="196.9" y2="464.7"/>
				<rect id="XMLID_99_" x="196.9" y="464.4" class="st3" width="452.6" height="0.6"/>
			</g>
			<g id="XMLID_327_">
				<line id="XMLID_98_" class="st2" x1="649.4" y1="471.2" x2="196.9" y2="471.2"/>
				<rect id="XMLID_97_" x="196.9" y="471" class="st3" width="452.6" height="0.4"/>
			</g>
			<g id="XMLID_324_">
				<line id="XMLID_96_" class="st2" x1="649.4" y1="477.8" x2="196.9" y2="477.8"/>
				<rect id="XMLID_95_" x="196.9" y="477.7" class="st3" width="452.6" height="0.2"/>
			</g>
		</g>
		<g id="XMLID_238_">
			<g id="XMLID_320_">
				<line id="XMLID_94_" class="st2" x1="196.9" y1="665.5" x2="649.4" y2="665.5"/>
				<rect id="XMLID_93_" x="196.9" y="663.2" class="st3" width="452.6" height="4.6"/>
			</g>
			<g id="XMLID_317_">
				<line id="XMLID_92_" class="st2" x1="196.9" y1="658.8" x2="649.4" y2="658.8"/>
				<rect id="XMLID_91_" x="196.9" y="656.6" class="st3" width="452.6" height="4.4"/>
			</g>
			<g id="XMLID_314_">
				<line id="XMLID_90_" class="st2" x1="196.9" y1="652" x2="649.4" y2="652"/>
				<rect id="XMLID_89_" x="196.9" y="649.9" class="st3" width="452.6" height="4.3"/>
			</g>
			<g id="XMLID_311_">
				<line id="XMLID_88_" class="st2" x1="196.9" y1="645.3" x2="649.4" y2="645.3"/>
				<rect id="XMLID_87_" x="196.9" y="643.3" class="st3" width="452.6" height="4.1"/>
			</g>
			<g id="XMLID_308_">
				<line id="XMLID_86_" class="st2" x1="196.9" y1="638.6" x2="649.4" y2="638.6"/>
				<rect id="XMLID_85_" x="196.9" y="636.6" class="st3" width="452.6" height="4"/>
			</g>
			<g id="XMLID_305_">
				<line id="XMLID_84_" class="st2" x1="196.9" y1="631.9" x2="649.4" y2="631.9"/>
				<rect id="XMLID_83_" x="196.9" y="630" class="st3" width="452.6" height="3.8"/>
			</g>
			<g id="XMLID_302_">
				<line id="XMLID_82_" class="st2" x1="196.9" y1="625.1" x2="649.4" y2="625.1"/>
				<rect id="XMLID_81_" x="196.9" y="623.3" class="st3" width="452.6" height="3.6"/>
			</g>
			<g id="XMLID_299_">
				<line id="XMLID_80_" class="st2" x1="196.9" y1="618.4" x2="649.4" y2="618.4"/>
				<rect id="XMLID_79_" x="196.9" y="616.7" class="st3" width="452.6" height="3.5"/>
			</g>
			<g id="XMLID_296_">
				<line id="XMLID_78_" class="st2" x1="196.9" y1="611.7" x2="649.4" y2="611.7"/>
				<rect id="XMLID_77_" x="196.9" y="610" class="st3" width="452.6" height="3.3"/>
			</g>
			<g id="XMLID_293_">
				<line id="XMLID_76_" class="st2" x1="196.9" y1="604.9" x2="649.4" y2="604.9"/>
				<rect id="XMLID_75_" x="196.9" y="603.4" class="st3" width="452.6" height="3.1"/>
			</g>
			<g id="XMLID_290_">
				<line id="XMLID_74_" class="st2" x1="196.9" y1="598.2" x2="649.4" y2="598.2"/>
				<rect id="XMLID_73_" x="196.9" y="596.7" class="st3" width="452.6" height="3"/>
			</g>
			<g id="XMLID_287_">
				<line id="XMLID_72_" class="st2" x1="196.9" y1="591.5" x2="649.4" y2="591.5"/>
				<rect id="XMLID_71_" x="196.9" y="590.1" class="st3" width="452.6" height="2.8"/>
			</g>
			<g id="XMLID_284_">
				<line id="XMLID_70_" class="st2" x1="196.9" y1="584.8" x2="649.4" y2="584.8"/>
				<rect id="XMLID_69_" x="196.9" y="583.4" class="st3" width="452.6" height="2.7"/>
			</g>
			<g id="XMLID_281_">
				<line id="XMLID_68_" class="st2" x1="196.9" y1="578" x2="649.4" y2="578"/>
				<rect id="XMLID_67_" x="196.9" y="576.8" class="st3" width="452.6" height="2.5"/>
			</g>
			<g id="XMLID_278_">
				<line id="XMLID_66_" class="st2" x1="196.9" y1="571.3" x2="649.4" y2="571.3"/>
				<rect id="XMLID_65_" x="196.9" y="570.1" class="st3" width="452.6" height="2.3"/>
			</g>
			<g id="XMLID_275_">
				<line id="XMLID_64_" class="st2" x1="196.9" y1="564.6" x2="649.4" y2="564.6"/>
				<rect id="XMLID_63_" x="196.9" y="563.5" class="st3" width="452.6" height="2.2"/>
			</g>
			<g id="XMLID_272_">
				<line id="XMLID_62_" class="st2" x1="196.9" y1="557.8" x2="649.4" y2="557.8"/>
				<rect id="XMLID_61_" x="196.9" y="556.8" class="st3" width="452.6" height="2"/>
			</g>
			<g id="XMLID_269_">
				<line id="XMLID_60_" class="st2" x1="196.9" y1="551.1" x2="649.4" y2="551.1"/>
				<rect id="XMLID_59_" x="196.9" y="550.2" class="st3" width="452.6" height="1.9"/>
			</g>
			<g id="XMLID_266_">
				<line id="XMLID_58_" class="st2" x1="196.9" y1="544.4" x2="649.4" y2="544.4"/>
				<rect id="XMLID_57_" x="196.9" y="543.5" class="st3" width="452.6" height="1.7"/>
			</g>
			<g id="XMLID_263_">
				<line id="XMLID_56_" class="st2" x1="196.9" y1="537.6" x2="649.4" y2="537.6"/>
				<rect id="XMLID_55_" x="196.9" y="536.9" class="st3" width="452.6" height="1.5"/>
			</g>
			<g id="XMLID_260_">
				<line id="XMLID_54_" class="st2" x1="196.9" y1="530.9" x2="649.4" y2="530.9"/>
				<rect id="XMLID_53_" x="196.9" y="530.2" class="st3" width="452.6" height="1.4"/>
			</g>
			<g id="XMLID_257_">
				<line id="XMLID_52_" class="st2" x1="196.9" y1="524.2" x2="649.4" y2="524.2"/>
				<rect id="XMLID_51_" x="196.9" y="523.6" class="st3" width="452.6" height="1.2"/>
			</g>
			<g id="XMLID_254_">
				<line id="XMLID_50_" class="st2" x1="196.9" y1="517.5" x2="649.4" y2="517.5"/>
				<rect id="XMLID_49_" x="196.9" y="516.9" class="st3" width="452.6" height="1"/>
			</g>
			<g id="XMLID_251_">
				<line id="XMLID_48_" class="st2" x1="196.9" y1="510.7" x2="649.4" y2="510.7"/>
				<rect id="XMLID_47_" x="196.9" y="510.3" class="st3" width="452.6" height="0.9"/>
			</g>
			<g id="XMLID_248_">
				<line id="XMLID_46_" class="st2" x1="196.9" y1="504" x2="649.4" y2="504"/>
				<rect id="XMLID_45_" x="196.9" y="503.6" class="st3" width="452.6" height="0.7"/>
			</g>
			<g id="XMLID_245_">
				<line id="XMLID_44_" class="st2" x1="196.9" y1="497.3" x2="649.4" y2="497.3"/>
				<rect id="XMLID_43_" x="196.9" y="497" class="st3" width="452.6" height="0.6"/>
			</g>
			<g id="XMLID_242_">
				<line id="XMLID_42_" class="st2" x1="196.9" y1="490.5" x2="649.4" y2="490.5"/>
				<rect id="XMLID_41_" x="196.9" y="490.3" class="st3" width="452.6" height="0.4"/>
			</g>
			<g id="XMLID_239_">
				<line id="XMLID_40_" class="st2" x1="196.9" y1="483.8" x2="649.4" y2="483.8"/>
				<rect id="XMLID_39_" x="196.9" y="483.7" class="st3" width="452.6" height="0.2"/>
			</g>
		</g>
		<rect id="XMLID_38_" x="197.2" y="247.4" class="st0" width="452.6" height="51.1"/>
	</g>
</mask>
<path id="XMLID_408_" class="st4" d="M287.8,425.3c0,75.8,60.9,137.4,135.7,137.4c74.8,0,135.7-61.6,135.7-137.4
	s-60.9-137.4-135.7-137.4C348.7,287.9,287.8,349.5,287.8,425.3z M508.6,385.7c0,47.5-38.2,86.1-85.1,86.1s-85.1-38.6-85.1-86.1
	s38.2-86.1,85.1-86.1S508.6,338.2,508.6,385.7z"/>
<g id="_x31_0_Logo_1_">
	<rect id="XMLID_37_" x="372.6" y="369.5" width="101.8" height="1.2"/>
	<rect id="XMLID_36_" x="372.6" y="366.5" width="101.8" height="1.2"/>
	<rect id="XMLID_35_" x="372.6" y="363.5" width="101.8" height="1.2"/>
	<rect id="XMLID_34_" x="372.6" y="360.5" width="101.8" height="1.2"/>
	<rect id="XMLID_33_" x="372.6" y="357.4" width="101.8" height="1.2"/>
	<rect id="XMLID_32_" x="372.6" y="354.4" width="101.8" height="1.2"/>
	<rect id="XMLID_31_" x="372.6" y="351.4" width="101.8" height="1.2"/>
	<path id="XMLID_30_" class="st5" d="M418.4,237.6c2.9,0,13.3-0.1,19.1-0.6c14.6-1.1,26.2-8.2,32.1-18.6
		c-7.4,10.3-21.2,16.6-34.3,17.1c-5.9,0.2-17.5,0.3-18.9,0.3c-14.8,0-30-5.9-38.2-16.4C385.2,230.7,399.7,237.6,418.4,237.6z"/>
	<path id="XMLID_29_" class="st5" d="M435.1,234.3c13-0.5,26.6-6.8,33.7-17c-2.2,2.6-4.9,4.9-8.2,7.1c-8.1,5.3-18.5,8.4-27.8,8.4
		h-18.6c-9.3,0-19.8-3.2-27.9-8.4c-3.1-2-5.7-4.2-7.8-6.6c6.8,9.6,19.9,16.8,37.7,16.8C417.7,234.6,429.2,234.5,435.1,234.3z"/>
	<path id="XMLID_28_" class="st5" d="M444.4,246.5c-5.2,0.9-12.6,1.4-19.9,1.4c-24.2,0-39.3-5.9-46.8-19.2c6.2,13.4,20.1,21,48.8,21
		c31,0,41.7-9,45.4-24.7C468.3,235.5,460.6,243.7,444.4,246.5z"/>
	<path id="XMLID_27_" class="st5" d="M420.4,240.6c3.6,0,13.4-0.2,19.3-0.8c14.7-1.6,25.3-8.8,30.5-20.1
		c-6.2,10.4-18,17.5-32.7,18.6c-5.8,0.4-16.2,0.6-19.1,0.6c-18.7,0-33.2-6.7-40.7-17.9C384.6,233.6,399.3,240.6,420.4,240.6z"/>
	<path id="XMLID_26_" class="st5" d="M426.5,170.9c25.5,0,40.8,6.2,46.2,18.8c-4-20.2-18.9-29.7-46.2-29.7
		c-28.9,0-47.3,11.1-52,30.9C380.7,178.1,398.9,170.9,426.5,170.9z"/>
	<path id="XMLID_25_" class="st5" d="M426.5,172.1c-33.9,0-53.3,10.8-53.3,29.7c0,0.6,0,1.1,0.1,1.7c1.5,17.2,24.8,28,41,28h18.6
		c16.7,0,40.9-11.6,40.9-29.7C473.8,181.6,458.8,172.1,426.5,172.1z"/>
	<path id="XMLID_24_" class="st5" d="M422.5,243.7c5.5,0,14-0.4,19.5-1.1c14.2-2,23.6-8.8,28.3-20.3c-5.7,10.5-16.2,17.2-30.5,18.8
		c-5.9,0.6-15.8,0.8-19.4,0.8c-20.6,0-35.3-6.6-42.8-18.6C384.4,237,399.3,243.7,422.5,243.7z"/>
	<path id="XMLID_23_" class="st5" d="M424.5,246.7c7.2,0,14.6-0.5,19.7-1.4c16.5-2.8,24-11.6,27.2-22.7c-4.8,12-14.6,19-29.3,21.1
		c-5.5,0.8-14.1,1.1-19.6,1.1c-22.4,0-37.4-6.5-44.9-19.4C384.4,240.1,399.4,246.7,424.5,246.7z"/>
	<path id="XMLID_211_" d="M426.5,152.7c-34.6,0-54.5,17.9-54.5,49.1c0,30.3,9.1,49.1,54.6,49.1c45.1,0,48.4-18.5,48.4-49.1
		C475,168.8,459.1,152.7,426.5,152.7z M426.5,160c27.3,0,42.3,9.5,46.2,29.7c-5.4-12.6-20.7-18.8-46.2-18.8c-27.6,0-45.8,7.1-52,20
		C379.2,171.1,397.6,160,426.5,160z M426.6,249.7c-28.7,0-42.6-7.6-48.8-21c7.5,13.2,22.6,19.2,46.8,19.2c7.3,0,14.7-0.5,19.9-1.4
		c16.1-2.8,23.9-10.9,27.6-21.5C468.3,240.7,457.6,249.7,426.6,249.7z M416.3,235.8c1.4,0,13-0.1,18.9-0.3
		c13.1-0.5,26.9-6.8,34.3-17.1c-5.9,10.5-17.5,17.5-32.1,18.6c-5.7,0.4-16.1,0.6-19.1,0.6c-18.7,0-33.1-6.9-40.3-18.2
		C386.3,229.9,401.4,235.8,416.3,235.8z M378.6,217.8c2.1,2.4,4.7,4.6,7.8,6.6c8.1,5.3,18.5,8.4,27.9,8.4h18.6
		c9.3,0,19.7-3.2,27.8-8.4c3.3-2.1,6-4.5,8.2-7.1c-7.1,10.2-20.8,16.5-33.7,17c-5.9,0.2-17.4,0.3-18.8,0.3
		C398.5,234.6,385.4,227.3,378.6,217.8z M418.4,238.8c2.9,0,13.4-0.1,19.1-0.6c14.7-1.1,26.5-8.1,32.7-18.6
		c-5.2,11.3-15.8,18.5-30.5,20.1c-5.8,0.6-15.7,0.8-19.3,0.8c-21.1,0-35.8-7-42.7-19.7C385.2,232.1,399.7,238.8,418.4,238.8z
		 M420.4,241.8c3.6,0,13.5-0.2,19.4-0.8c14.3-1.5,24.8-8.2,30.5-18.8c-4.7,11.5-14.2,18.3-28.3,20.3c-5.5,0.8-13.9,1.1-19.5,1.1
		c-23.2,0-38-6.7-44.9-20.4C385.1,235.3,399.8,241.8,420.4,241.8z M422.5,244.9c5.6,0,14.1-0.4,19.6-1.1
		c14.7-2.1,24.5-9.2,29.3-21.1c-3.3,11.1-10.7,19.8-27.2,22.7c-5.1,0.9-12.5,1.4-19.7,1.4c-25.1,0-40.2-6.5-47-21.2
		C385,238.4,400,244.9,422.5,244.9z M432.9,231.5h-18.6c-16.2,0-39.5-10.9-41-28c0-0.6-0.1-1.1-0.1-1.7c0-18.9,19.4-29.7,53.3-29.7
		c32.3,0,47.3,9.4,47.3,29.7C473.8,220,449.6,231.5,432.9,231.5z"/>
	<polygon id="XMLID_13_" points="474.4,333.8 372.6,333.8 333.7,333.8 333.7,344.7 372.6,344.7 372.6,339.8 474.4,339.8 
		474.4,344.7 513.3,344.7 513.3,333.8 	"/>
</g>
<g id="XMLID_192_">
	<path id="XMLID_195_" d="M255.9,69l-8.1-4.8l1.5-2.6c0.6-1.1,1.5-1.7,2.5-2c1-0.3,2.1-0.1,3.1,0.5l1.1,0.7c1,0.6,1.7,1.4,1.9,2.5
		c0.3,1,0.1,2.1-0.6,3.2L255.9,69z M249.4,63.7l6.3,3.8l0.9-1.5c0.5-0.8,0.6-1.5,0.3-2.2c-0.2-0.7-0.7-1.3-1.5-1.8l-1.1-0.7
		c-0.8-0.5-1.5-0.6-2.3-0.5c-0.8,0.1-1.4,0.6-1.8,1.4L249.4,63.7z"/>
	<path id="XMLID_199_" d="M255.1,52.3L256,51l0,0l0.3,2.4l-0.6,0.8L255.1,52.3z M263,58.5c-0.6,0.8-1.3,1.3-2.2,1.3
		c-0.9,0.1-1.7-0.2-2.5-0.8l-0.2-0.2c-0.8-0.6-1.3-1.3-1.5-2.2c-0.2-0.9,0-1.6,0.5-2.3c0.6-0.8,1.2-1.2,2-1.2s1.5,0.2,2.3,0.8
		l0.5,0.4l-2.7,3.6l0,0c0.6,0.4,1.1,0.6,1.6,0.6c0.5,0,1-0.2,1.4-0.8c0.3-0.4,0.4-0.7,0.5-1c0.1-0.3,0.1-0.7,0.1-1l1,0.1
		c0,0.3,0,0.7-0.1,1.2C263.5,57.6,263.3,58,263,58.5z M257.8,54.9c-0.3,0.4-0.4,0.8-0.3,1.2c0.1,0.4,0.3,0.8,0.7,1.2l0,0l1.9-2.6
		l-0.1-0.1c-0.4-0.3-0.8-0.5-1.2-0.4C258.5,54.3,258.2,54.5,257.8,54.9z"/>
	<path id="XMLID_204_" d="M267.1,51.9c0.3-0.3,0.4-0.6,0.4-1c0-0.4-0.1-0.7-0.4-1l0.8-0.9l0,0c0.5,0.4,0.7,0.9,0.7,1.7
		c0,0.7-0.3,1.3-0.7,1.9c-0.7,0.7-1.4,1.1-2.3,1.1s-1.7-0.4-2.4-1.1l-0.2-0.2c-0.7-0.7-1.2-1.4-1.3-2.3c-0.1-0.9,0.1-1.6,0.8-2.4
		c0.5-0.6,1.1-0.9,1.8-1c0.7-0.1,1.3,0.2,1.8,0.6l0,0l-0.8,0.9c-0.3-0.3-0.7-0.4-1.1-0.4s-0.8,0.2-1,0.5c-0.4,0.5-0.6,1-0.4,1.5
		c0.2,0.5,0.5,1,1,1.5l0.2,0.2c0.5,0.5,1.1,0.8,1.6,0.9S266.7,52.4,267.1,51.9z"/>
	<path id="XMLID_207_" d="M268.6,46.4c-0.7-0.8-1.1-1.6-1.1-2.4c0-0.9,0.3-1.6,1-2.3c0.7-0.7,1.5-1,2.4-0.9s1.7,0.5,2.4,1.3l0.1,0.1
		c0.7,0.8,1.1,1.6,1.1,2.5c0,0.9-0.3,1.6-1,2.3s-1.5,1-2.4,0.9c-0.9-0.1-1.7-0.5-2.4-1.3L268.6,46.4z M269.6,45.6
		c0.5,0.5,1,0.9,1.6,1c0.6,0.1,1.1,0,1.5-0.4c0.5-0.4,0.6-0.9,0.5-1.5c-0.1-0.6-0.4-1.1-0.9-1.7l-0.1-0.1c-0.5-0.5-1-0.9-1.6-1
		c-0.6-0.1-1.1,0-1.5,0.4c-0.5,0.4-0.6,0.9-0.5,1.5c0.1,0.6,0.4,1.1,0.9,1.7L269.6,45.6z"/>
	<path id="XMLID_210_" d="M280.5,39.6c0,0.4,0,0.8-0.2,1.2c-0.2,0.4-0.4,0.7-0.8,1c-0.6,0.5-1.2,0.6-1.9,0.5
		c-0.6-0.1-1.3-0.6-1.9-1.4l-2.5-3.3l1-0.8l2.5,3.3c0.4,0.6,0.8,0.9,1.2,1s0.7,0,1.1-0.3c0.4-0.3,0.6-0.6,0.7-0.9
		c0.1-0.3,0.2-0.7,0.1-1l-3-4l1-0.8l4.2,5.5l-0.9,0.7L280.5,39.6z"/>
	<path id="XMLID_213_" d="M285.2,35.1l0.4,0.4l0,0l-0.2-0.5l-1.2-5l1.1-0.7l1.5,7.3l-0.8,0.5l-5.9-4.5l1.1-0.7L285.2,35.1z"/>
	<path id="XMLID_215_" d="M291.1,27.5l-0.6,0.3c-0.3,0.2-0.5,0.4-0.7,0.6c-0.1,0.2-0.2,0.5-0.2,0.8l2.3,4.4l-1.1,0.6l-3.2-6.2l1-0.5
		l0.6,0.8c0-0.4,0.1-0.8,0.3-1.1c0.2-0.3,0.4-0.6,0.8-0.7c0.1,0,0.2-0.1,0.3-0.1s0.2,0,0.2-0.1L291.1,27.5z"/>
	<path id="XMLID_217_" d="M293.5,23.2l-1.2,0.5l-0.5-1.2l1.2-0.5L293.5,23.2z M297.1,31.1l-1.2,0.5l-2.9-6.3l1.2-0.5L297.1,31.1z"/>
	<path id="XMLID_220_" d="M300.8,23.3l-0.6,0.2c-0.3,0.1-0.6,0.3-0.7,0.5c-0.2,0.2-0.2,0.5-0.3,0.8l1.8,4.6l-1.2,0.5l-2.5-6.5
		l1.1-0.4l0.5,0.9c0.1-0.4,0.2-0.8,0.4-1.1c0.2-0.3,0.5-0.5,0.8-0.7c0.1,0,0.2-0.1,0.3-0.1c0.1,0,0.2,0,0.2,0L300.8,23.3z"/>
</g>
<path id="XMLID_11_" d="M327.5,19.1c0,47.1-37.9,85.5-84.4,85.5c-2.1,0-4.2-0.1-6.2-0.2c-0.1,2-0.2,4.1-0.2,6.1
	c0,53.1,42.7,96.4,95.2,96.4c2.5,0,4.9-0.1,7.4-0.3c-0.1-1.6-0.1-3.2-0.1-4.7c0-47.1,37.9-85.5,84.4-85.5c1.1,0,2.2,0,3.4,0.1
	c0.1-2,0.2-4,0.2-6c0-53.1-42.7-96.4-95.2-96.4"/>
<path id="XMLID_205_" class="st0" d="M324.2,110c0-4.8,3.9-8.7,8.6-8.7c4.8,0,8.6,3.9,8.6,8.7c0,4.8-3.9,8.7-8.6,8.7
	C328.1,118.7,324.2,114.8,324.2,110z"/>
<line id="XMLID_9_" class="st6" x1="282.2" y1="59.3" x2="332.6" y2="110.3"/>
<path id="XMLID_201_" d="M423.5,298.2c-52.5,0-95.2-43.2-95.2-96.4s42.7-96.4,95.2-96.4c52.5,0,95.2,43.2,95.2,96.4
	S476,298.2,423.5,298.2z M423.5,116.4c-46.6,0-84.4,38.3-84.4,85.5s37.9,85.5,84.4,85.5s84.4-38.3,84.4-85.5S470,116.4,423.5,116.4z
	"/>
<g id="XMLID_193_">
	<rect id="XMLID_1_" x="308" y="85.2" class="st5" width="252.2" height="46.4"/>
	<text id="XMLID_6_" transform="matrix(0.9878 0 0 1 348.0799 103.6191)"><tspan x="0" y="0" class="st0 st7 st8">studio</tspan><tspan x="74.9" y="0" class="st7 st8"> de création</tspan></text>
	<path id="XMLID_197_" class="st0" d="M348.7,121.9l9-9.2v22.6l3.9,2.8h-12.5l3.7-2.8v-14.8L348.7,121.9L348.7,121.9z"/>
	<path id="XMLID_194_" class="st0" d="M373.4,138.6c-5.6,0-8.8-5.8-8.8-11.8c0-6.5,3.7-13.9,11-13.9c5.7,0,8.8,5.8,8.8,11.8
		C384.5,131.1,380.8,138.6,373.4,138.6z M369.8,122.2c0,7.8,2.4,14.4,5.8,14.4c2.8,0,3.8-4.9,3.8-7.5c0-7.8-2.4-14.4-5.8-14.4
		C370.3,114.7,369.8,119.2,369.8,122.2z"/>
</g>
</svg>
